<svg id="Evil_Icons" data-name="Evil Icons" xmlns="http://www.w3.org/2000/svg" viewBox="0 0 50 50"><title>cart</title><g id="Icon_Cart" data-name="Icon Cart"><path d="M35,34H13a1,1,0,0,1-.93-1.37L14,27.86,12.1,10H6V8h7a1,1,0,0,1,1,.9l2,19a1,1,0,0,1-.07.48L14.48,32H36Z"/><path d="M15.2,29l-.41-2L38,22.19V14H14V12H39a1,1,0,0,1,1,1V23a1,1,0,0,1-.8,1Z"/><path d="M36,40a4,4,0,1,1,4-4A4,4,0,0,1,36,40Zm0-6a2,2,0,1,0,2,2A2,2,0,0,0,36,34Z"/><path d="M12,40a4,4,0,1,1,4-4A4,4,0,0,1,12,40Zm0-6a2,2,0,1,0,2,2A2,2,0,0,0,12,34Z"/></g></svg>