<svg id="Evil_Icons" data-name="Evil Icons" xmlns="http://www.w3.org/2000/svg" viewBox="0 0 50 50"><title>heart</title><path id="Icon_Heart" data-name="Icon Heart" d="M25,39.63l-.59-.48C11.55,28.68,8.07,25,8.07,19A8.94,8.94,0,0,1,17,10.07c4.11,0,6.44,2.34,8,4.09,1.56-1.76,3.89-4.09,8-4.09A8.94,8.94,0,0,1,41.93,19c0,6-3.48,9.68-16.34,20.15Zm-8-27.7A7.08,7.08,0,0,0,9.93,19c0,5.13,3.23,8.56,15.07,18.23C36.84,27.56,40.07,24.13,40.07,19A7.08,7.08,0,0,0,33,11.93c-3.57,0-5.43,2.13-6.93,3.83L25,17l-1.07-1.2C22.43,14.06,20.57,11.93,17,11.93Z"/></svg>