<svg id="Evil_Icons" data-name="Evil Icons" xmlns="http://www.w3.org/2000/svg" viewBox="0 0 50 50"><title>share-google</title><g id="Icon_Share_Google" data-name="Icon Share Google"><path d="M15,29.93A4.93,4.93,0,1,1,19.93,25,4.94,4.94,0,0,1,15,29.93Zm0-8A3.07,3.07,0,1,0,18.07,25,3.07,3.07,0,0,0,15,21.93Z"/><path d="M35,19.93A4.93,4.93,0,1,1,39.93,15,4.94,4.94,0,0,1,35,19.93Zm0-8A3.07,3.07,0,1,0,38.07,15,3.07,3.07,0,0,0,35,11.93Z"/><path d="M35,39.93A4.93,4.93,0,1,1,39.93,35,4.94,4.94,0,0,1,35,39.93Zm0-8A3.07,3.07,0,1,0,38.07,35,3.07,3.07,0,0,0,35,31.93Z"/><rect x="24" y="22.8" width="2" height="14.39" transform="translate(-13.01 38.94) rotate(-63.43)"/><rect x="17.8" y="19" width="14.39" height="2" transform="translate(-6.3 13.29) rotate(-26.57)"/></g></svg>