<?xml version="1.0" encoding="iso-8859-1"?>
<!-- Generator: Adobe Illustrator 19.0.0, SVG Export Plug-In . SVG Version: 6.00 Build 0)  -->
<svg version="1.1" id="Capa_1" xmlns="http://www.w3.org/2000/svg" xmlns:xlink="http://www.w3.org/1999/xlink" x="0px" y="0px"
	 viewBox="0 0 488.975 488.975" style="enable-background:new 0 0 488.975 488.975;" xml:space="preserve">
<g>
	<g>
		<path d="M270.7,3.876l-173,119.7H20.8c-11.4,0-20.8,9.4-20.8,20.8v198.8c0,11.4,9.4,20.8,20.8,20.8h75.4l174.4,120.7
			c12.5,10.5,33.1-0.9,32.3-15.6v-448.5C303.8,9.776,288-7.324,270.7,3.876z M86.4,323.476H40.6v-158.2h45.8
			C86.4,165.276,86.4,323.476,86.4,323.476z M262.3,429.576l-134.3-93v-184.6l134.3-93V429.576z"/>
		<path d="M438.2,116.276c-8.3-8.3-20.8-8.3-29.1-1c-8.3,8.3-8.3,20.8-1,29.1c53.1,55.2,53.1,144.7,0,199.9
			c-7.3,8.3-7.3,20.8,1,29.1c13.9,10.2,25,3.1,29.1-1C505.9,301.576,505.9,187.076,438.2,116.276z"/>
		<path d="M386.2,180.876c-8.3-8.3-20.8-8.3-29.1-1c-8.3,8.3-8.3,20.8-1,29.1c18.7,19.8,18.7,51,0,70.8c-7.3,8.3-7.3,20.8,1,29.1
			c13.7,10,25,3.1,29.1-1C419.5,272.476,419.5,216.276,386.2,180.876z"/>
	</g>
</g>
<g>
</g>
<g>
</g>
<g>
</g>
<g>
</g>
<g>
</g>
<g>
</g>
<g>
</g>
<g>
</g>
<g>
</g>
<g>
</g>
<g>
</g>
<g>
</g>
<g>
</g>
<g>
</g>
<g>
</g>
</svg>
